<?xml version="1.0" encoding="UTF-8" standalone="no"?>
<!-- Created with Inkscape (http://www.inkscape.org/) -->

<svg
   xmlns:dc="http://purl.org/dc/elements/1.1/"
   xmlns:cc="http://creativecommons.org/ns#"
   xmlns:rdf="http://www.w3.org/1999/02/22-rdf-syntax-ns#"
   xmlns:svg="http://www.w3.org/2000/svg"
   xmlns="http://www.w3.org/2000/svg"
   xmlns:sodipodi="http://sodipodi.sourceforge.net/DTD/sodipodi-0.dtd"
   xmlns:inkscape="http://www.inkscape.org/namespaces/inkscape"
   width="106.29921"
   height="70.866142"
   id="svg4739"
   version="1.1"
   inkscape:version="0.48.5 r10040"
   sodipodi:docname="PottingGood.svg">
  <defs
     id="defs4741" />
  <sodipodi:namedview
     id="base"
     pagecolor="#ffffff"
     bordercolor="#666666"
     borderopacity="1.0"
     inkscape:pageopacity="0.0"
     inkscape:pageshadow="2"
     inkscape:zoom="3.959798"
     inkscape:cx="44.094269"
     inkscape:cy="40.028861"
     inkscape:document-units="mm"
     inkscape:current-layer="layer1"
     showgrid="false"
     inkscape:window-width="1276"
     inkscape:window-height="755"
     inkscape:window-x="4"
     inkscape:window-y="0"
     inkscape:window-maximized="1"
     units="mm" />
  <metadata
     id="metadata4744">
    <rdf:RDF>
      <cc:Work
         rdf:about="">
        <dc:format>image/svg+xml</dc:format>
        <dc:type
           rdf:resource="http://purl.org/dc/dcmitype/StillImage" />
        <dc:title></dc:title>
      </cc:Work>
    </rdf:RDF>
  </metadata>
  <g
     inkscape:label="Ebene 1"
     inkscape:groupmode="layer"
     id="layer1"
     transform="translate(0,-981.49605)">
    <rect
       style="fill:#cccccc;fill-rule:evenodd;stroke:none"
       id="rect4766"
       width="114.64286"
       height="27.5"
       x="-4.3290429"
       y="982.86218" />
    <g
       id="g4784"
       transform="translate(-0.75761441,-2)">
      <rect
         y="988.255"
         x="2.8571429"
         height="10"
         width="7.8571429"
         id="rect4768"
         style="fill:#f2f2f2;fill-rule:evenodd;stroke:#f2f2f2;stroke-width:1px;stroke-linecap:butt;stroke-linejoin:miter;stroke-opacity:1" />
      <rect
         style="fill:#f2f2f2;fill-rule:evenodd;stroke:#f2f2f2;stroke-width:1px;stroke-linecap:butt;stroke-linejoin:miter;stroke-opacity:1"
         id="rect4770"
         width="7.8571429"
         height="10"
         x="16.37755"
         y="988.255" />
      <rect
         y="988.255"
         x="29.897961"
         height="10"
         width="7.8571429"
         id="rect4772"
         style="fill:#f2f2f2;fill-rule:evenodd;stroke:#f2f2f2;stroke-width:1px;stroke-linecap:butt;stroke-linejoin:miter;stroke-opacity:1" />
      <rect
         style="fill:#f2f2f2;fill-rule:evenodd;stroke:#f2f2f2;stroke-width:1px;stroke-linecap:butt;stroke-linejoin:miter;stroke-opacity:1"
         id="rect4774"
         width="7.8571429"
         height="10"
         x="43.418369"
         y="988.255" />
      <rect
         y="988.255"
         x="56.938778"
         height="10"
         width="7.8571429"
         id="rect4776"
         style="fill:#f2f2f2;fill-rule:evenodd;stroke:#f2f2f2;stroke-width:1px;stroke-linecap:butt;stroke-linejoin:miter;stroke-opacity:1" />
      <rect
         style="fill:#f2f2f2;fill-rule:evenodd;stroke:#f2f2f2;stroke-width:1px;stroke-linecap:butt;stroke-linejoin:miter;stroke-opacity:1"
         id="rect4778"
         width="7.8571429"
         height="10"
         x="70.459183"
         y="988.255" />
      <rect
         y="988.255"
         x="83.979591"
         height="10"
         width="7.8571429"
         id="rect4780"
         style="fill:#f2f2f2;fill-rule:evenodd;stroke:#f2f2f2;stroke-width:1px;stroke-linecap:butt;stroke-linejoin:miter;stroke-opacity:1" />
      <rect
         style="fill:#f2f2f2;fill-rule:evenodd;stroke:#f2f2f2;stroke-width:1px;stroke-linecap:butt;stroke-linejoin:miter;stroke-opacity:1"
         id="rect4782"
         width="7.8571429"
         height="10"
         x="97.5"
         y="988.255" />
    </g>
    <rect
       style="fill:#aade87;fill-rule:evenodd;stroke:#aade87;stroke-width:1px;stroke-linecap:butt;stroke-linejoin:miter;stroke-opacity:1"
       id="rect4794"
       width="114.28571"
       height="56.07143"
       x="-4.6861858"
       y="1008.3622" />
    <g
       id="g5201"
       transform="translate(0,6)">
      <rect
         y="1005.5164"
         x="3.0304577"
         height="27.02158"
         width="6.0609155"
         id="rect4796"
         style="fill:#ffdd55;fill-rule:evenodd;stroke:#ffdd55;stroke-width:1px;stroke-linecap:butt;stroke-linejoin:miter;stroke-opacity:1" />
      <rect
         style="fill:#ffdd55;fill-rule:evenodd;stroke:#ffdd55;stroke-width:1px;stroke-linecap:butt;stroke-linejoin:miter;stroke-opacity:1"
         id="rect4798"
         width="6.0609155"
         height="27.02158"
         x="16.523211"
         y="1005.5164" />
      <rect
         y="1005.5164"
         x="30.015965"
         height="27.02158"
         width="6.0609155"
         id="rect4800"
         style="fill:#ffdd55;fill-rule:evenodd;stroke:#ffdd55;stroke-width:1px;stroke-linecap:butt;stroke-linejoin:miter;stroke-opacity:1" />
      <rect
         style="fill:#ffdd55;fill-rule:evenodd;stroke:#ffdd55;stroke-width:1px;stroke-linecap:butt;stroke-linejoin:miter;stroke-opacity:1"
         id="rect4802"
         width="6.0609155"
         height="27.02158"
         x="43.508717"
         y="1005.5164" />
      <rect
         y="1005.5164"
         x="57.001469"
         height="27.02158"
         width="6.0609155"
         id="rect4804"
         style="fill:#ffdd55;fill-rule:evenodd;stroke:#ffdd55;stroke-width:1px;stroke-linecap:butt;stroke-linejoin:miter;stroke-opacity:1" />
      <rect
         style="fill:#ffdd55;fill-rule:evenodd;stroke:#ffdd55;stroke-width:1px;stroke-linecap:butt;stroke-linejoin:miter;stroke-opacity:1"
         id="rect4806"
         width="6.0609155"
         height="27.02158"
         x="70.494217"
         y="1005.5164" />
      <rect
         y="1005.5164"
         x="83.986969"
         height="27.02158"
         width="6.0609155"
         id="rect4808"
         style="fill:#ffdd55;fill-rule:evenodd;stroke:#ffdd55;stroke-width:1px;stroke-linecap:butt;stroke-linejoin:miter;stroke-opacity:1" />
      <rect
         style="fill:#ffdd55;fill-rule:evenodd;stroke:#ffdd55;stroke-width:1px;stroke-linecap:butt;stroke-linejoin:miter;stroke-opacity:1"
         id="rect4810"
         width="6.0609155"
         height="27.02158"
         x="97.479721"
         y="1005.5164" />
    </g>
    <g
       id="g4818"
       transform="matrix(1,0,0,1.3567958,0,-355.98515)">
      <path
         inkscape:connector-curvature="0"
         id="path4812"
         d="m 6.0609153,1017.7645 c 0,-23.99116 0,-24.24369 0,-24.24369"
         style="fill:none;stroke:#666666;stroke-width:1px;stroke-linecap:butt;stroke-linejoin:miter;stroke-opacity:1" />
      <path
         transform="translate(-0.12626907,981.49605)"
         d="m 7.1973369,11.51968 c 0,1.046047 -0.4522607,1.894036 -1.0101526,1.894036 -0.5578918,0 -1.0101525,-0.847989 -1.0101525,-1.894036 0,-1.046047 0.4522607,-1.894036 1.0101525,-1.894036 0.5578919,0 1.0101526,0.847989 1.0101526,1.894036 z"
         sodipodi:ry="1.8940361"
         sodipodi:rx="1.0101526"
         sodipodi:cy="11.51968"
         sodipodi:cx="6.1871843"
         id="path4814"
         style="fill:#666666;fill-rule:evenodd;stroke:#666666;stroke-width:1px;stroke-linecap:butt;stroke-linejoin:miter;stroke-opacity:1"
         sodipodi:type="arc" />
      <path
         sodipodi:type="arc"
         style="fill:#666666;fill-rule:evenodd;stroke:#666666;stroke-width:1px;stroke-linecap:butt;stroke-linejoin:miter;stroke-opacity:1"
         id="path4816"
         sodipodi:cx="6.1871843"
         sodipodi:cy="11.51968"
         sodipodi:rx="1.0101526"
         sodipodi:ry="1.8940361"
         d="m 7.1973369,11.51968 c 0,1.046047 -0.4522607,1.894036 -1.0101526,1.894036 -0.5578918,0 -1.0101525,-0.847989 -1.0101525,-1.894036 0,-1.046047 0.4522607,-1.894036 1.0101525,-1.894036 0.5578919,0 1.0101526,0.847989 1.0101526,1.894036 z"
         transform="translate(-0.12626907,1006.2448)" />
    </g>
    <g
       transform="matrix(1,0,0,1.3567958,0,-355.98515)"
       id="g5211">
      <path
         style="fill:none;stroke:#666666;stroke-width:1px;stroke-linecap:butt;stroke-linejoin:miter;stroke-opacity:1"
         d="m 6.0609153,1017.7645 c 0,-23.99116 0,-24.24369 0,-24.24369"
         id="path5213"
         inkscape:connector-curvature="0" />
      <path
         sodipodi:type="arc"
         style="fill:#666666;fill-rule:evenodd;stroke:#666666;stroke-width:1px;stroke-linecap:butt;stroke-linejoin:miter;stroke-opacity:1"
         id="path5215"
         sodipodi:cx="6.1871843"
         sodipodi:cy="11.51968"
         sodipodi:rx="1.0101526"
         sodipodi:ry="1.8940361"
         d="m 7.1973369,11.51968 c 0,1.046047 -0.4522607,1.894036 -1.0101526,1.894036 -0.5578918,0 -1.0101525,-0.847989 -1.0101525,-1.894036 0,-1.046047 0.4522607,-1.894036 1.0101525,-1.894036 0.5578919,0 1.0101526,0.847989 1.0101526,1.894036 z"
         transform="translate(-0.12626907,981.49605)" />
      <path
         transform="translate(-0.12626907,1006.2448)"
         d="m 7.1973369,11.51968 c 0,1.046047 -0.4522607,1.894036 -1.0101526,1.894036 -0.5578918,0 -1.0101525,-0.847989 -1.0101525,-1.894036 0,-1.046047 0.4522607,-1.894036 1.0101525,-1.894036 0.5578919,0 1.0101526,0.847989 1.0101526,1.894036 z"
         sodipodi:ry="1.8940361"
         sodipodi:rx="1.0101526"
         sodipodi:cy="11.51968"
         sodipodi:cx="6.1871843"
         id="path5217"
         style="fill:#666666;fill-rule:evenodd;stroke:#666666;stroke-width:1px;stroke-linecap:butt;stroke-linejoin:miter;stroke-opacity:1"
         sodipodi:type="arc" />
    </g>
    <g
       id="g5219"
       transform="matrix(1,0,0,1.3567958,13.494897,-355.98515)">
      <path
         inkscape:connector-curvature="0"
         id="path5221"
         d="m 6.0609153,1017.7645 c 0,-23.99116 0,-24.24369 0,-24.24369"
         style="fill:none;stroke:#666666;stroke-width:1px;stroke-linecap:butt;stroke-linejoin:miter;stroke-opacity:1" />
      <path
         transform="translate(-0.12626907,981.49605)"
         d="m 7.1973369,11.51968 c 0,1.046047 -0.4522607,1.894036 -1.0101526,1.894036 -0.5578918,0 -1.0101525,-0.847989 -1.0101525,-1.894036 0,-1.046047 0.4522607,-1.894036 1.0101525,-1.894036 0.5578919,0 1.0101526,0.847989 1.0101526,1.894036 z"
         sodipodi:ry="1.8940361"
         sodipodi:rx="1.0101526"
         sodipodi:cy="11.51968"
         sodipodi:cx="6.1871843"
         id="path5223"
         style="fill:#666666;fill-rule:evenodd;stroke:#666666;stroke-width:1px;stroke-linecap:butt;stroke-linejoin:miter;stroke-opacity:1"
         sodipodi:type="arc" />
      <path
         sodipodi:type="arc"
         style="fill:#666666;fill-rule:evenodd;stroke:#666666;stroke-width:1px;stroke-linecap:butt;stroke-linejoin:miter;stroke-opacity:1"
         id="path5225"
         sodipodi:cx="6.1871843"
         sodipodi:cy="11.51968"
         sodipodi:rx="1.0101526"
         sodipodi:ry="1.8940361"
         d="m 7.1973369,11.51968 c 0,1.046047 -0.4522607,1.894036 -1.0101526,1.894036 -0.5578918,0 -1.0101525,-0.847989 -1.0101525,-1.894036 0,-1.046047 0.4522607,-1.894036 1.0101525,-1.894036 0.5578919,0 1.0101526,0.847989 1.0101526,1.894036 z"
         transform="translate(-0.12626907,1006.2448)" />
    </g>
    <g
       transform="matrix(1,0,0,1.3567958,26.989796,-355.98515)"
       id="g5227">
      <path
         style="fill:none;stroke:#666666;stroke-width:1px;stroke-linecap:butt;stroke-linejoin:miter;stroke-opacity:1"
         d="m 6.0609153,1017.7645 c 0,-23.99116 0,-24.24369 0,-24.24369"
         id="path5229"
         inkscape:connector-curvature="0" />
      <path
         sodipodi:type="arc"
         style="fill:#666666;fill-rule:evenodd;stroke:#666666;stroke-width:1px;stroke-linecap:butt;stroke-linejoin:miter;stroke-opacity:1"
         id="path5231"
         sodipodi:cx="6.1871843"
         sodipodi:cy="11.51968"
         sodipodi:rx="1.0101526"
         sodipodi:ry="1.8940361"
         d="m 7.1973369,11.51968 c 0,1.046047 -0.4522607,1.894036 -1.0101526,1.894036 -0.5578918,0 -1.0101525,-0.847989 -1.0101525,-1.894036 0,-1.046047 0.4522607,-1.894036 1.0101525,-1.894036 0.5578919,0 1.0101526,0.847989 1.0101526,1.894036 z"
         transform="translate(-0.12626907,981.49605)" />
      <path
         transform="translate(-0.12626907,1006.2448)"
         d="m 7.1973369,11.51968 c 0,1.046047 -0.4522607,1.894036 -1.0101526,1.894036 -0.5578918,0 -1.0101525,-0.847989 -1.0101525,-1.894036 0,-1.046047 0.4522607,-1.894036 1.0101525,-1.894036 0.5578919,0 1.0101526,0.847989 1.0101526,1.894036 z"
         sodipodi:ry="1.8940361"
         sodipodi:rx="1.0101526"
         sodipodi:cy="11.51968"
         sodipodi:cx="6.1871843"
         id="path5233"
         style="fill:#666666;fill-rule:evenodd;stroke:#666666;stroke-width:1px;stroke-linecap:butt;stroke-linejoin:miter;stroke-opacity:1"
         sodipodi:type="arc" />
    </g>
    <g
       id="g5235"
       transform="matrix(1,0,0,1.3567958,40.484697,-355.98515)">
      <path
         inkscape:connector-curvature="0"
         id="path5237"
         d="m 6.0609153,1017.7645 c 0,-23.99116 0,-24.24369 0,-24.24369"
         style="fill:none;stroke:#666666;stroke-width:1px;stroke-linecap:butt;stroke-linejoin:miter;stroke-opacity:1" />
      <path
         transform="translate(-0.12626907,981.49605)"
         d="m 7.1973369,11.51968 c 0,1.046047 -0.4522607,1.894036 -1.0101526,1.894036 -0.5578918,0 -1.0101525,-0.847989 -1.0101525,-1.894036 0,-1.046047 0.4522607,-1.894036 1.0101525,-1.894036 0.5578919,0 1.0101526,0.847989 1.0101526,1.894036 z"
         sodipodi:ry="1.8940361"
         sodipodi:rx="1.0101526"
         sodipodi:cy="11.51968"
         sodipodi:cx="6.1871843"
         id="path5239"
         style="fill:#666666;fill-rule:evenodd;stroke:#666666;stroke-width:1px;stroke-linecap:butt;stroke-linejoin:miter;stroke-opacity:1"
         sodipodi:type="arc" />
      <path
         sodipodi:type="arc"
         style="fill:#666666;fill-rule:evenodd;stroke:#666666;stroke-width:1px;stroke-linecap:butt;stroke-linejoin:miter;stroke-opacity:1"
         id="path5241"
         sodipodi:cx="6.1871843"
         sodipodi:cy="11.51968"
         sodipodi:rx="1.0101526"
         sodipodi:ry="1.8940361"
         d="m 7.1973369,11.51968 c 0,1.046047 -0.4522607,1.894036 -1.0101526,1.894036 -0.5578918,0 -1.0101525,-0.847989 -1.0101525,-1.894036 0,-1.046047 0.4522607,-1.894036 1.0101525,-1.894036 0.5578919,0 1.0101526,0.847989 1.0101526,1.894036 z"
         transform="translate(-0.12626907,1006.2448)" />
    </g>
    <g
       transform="matrix(1,0,0,1.3567958,53.979593,-355.98515)"
       id="g5243">
      <path
         style="fill:none;stroke:#666666;stroke-width:1px;stroke-linecap:butt;stroke-linejoin:miter;stroke-opacity:1"
         d="m 6.0609153,1017.7645 c 0,-23.99116 0,-24.24369 0,-24.24369"
         id="path5245"
         inkscape:connector-curvature="0" />
      <path
         sodipodi:type="arc"
         style="fill:#666666;fill-rule:evenodd;stroke:#666666;stroke-width:1px;stroke-linecap:butt;stroke-linejoin:miter;stroke-opacity:1"
         id="path5247"
         sodipodi:cx="6.1871843"
         sodipodi:cy="11.51968"
         sodipodi:rx="1.0101526"
         sodipodi:ry="1.8940361"
         d="m 7.1973369,11.51968 c 0,1.046047 -0.4522607,1.894036 -1.0101526,1.894036 -0.5578918,0 -1.0101525,-0.847989 -1.0101525,-1.894036 0,-1.046047 0.4522607,-1.894036 1.0101525,-1.894036 0.5578919,0 1.0101526,0.847989 1.0101526,1.894036 z"
         transform="translate(-0.12626907,981.49605)" />
      <path
         transform="translate(-0.12626907,1006.2448)"
         d="m 7.1973369,11.51968 c 0,1.046047 -0.4522607,1.894036 -1.0101526,1.894036 -0.5578918,0 -1.0101525,-0.847989 -1.0101525,-1.894036 0,-1.046047 0.4522607,-1.894036 1.0101525,-1.894036 0.5578919,0 1.0101526,0.847989 1.0101526,1.894036 z"
         sodipodi:ry="1.8940361"
         sodipodi:rx="1.0101526"
         sodipodi:cy="11.51968"
         sodipodi:cx="6.1871843"
         id="path5249"
         style="fill:#666666;fill-rule:evenodd;stroke:#666666;stroke-width:1px;stroke-linecap:butt;stroke-linejoin:miter;stroke-opacity:1"
         sodipodi:type="arc" />
    </g>
    <g
       id="g5251"
       transform="matrix(1,0,0,1.3567958,67.474484,-355.98515)">
      <path
         inkscape:connector-curvature="0"
         id="path5253"
         d="m 6.0609153,1017.7645 c 0,-23.99116 0,-24.24369 0,-24.24369"
         style="fill:none;stroke:#666666;stroke-width:1px;stroke-linecap:butt;stroke-linejoin:miter;stroke-opacity:1" />
      <path
         transform="translate(-0.12626907,981.49605)"
         d="m 7.1973369,11.51968 c 0,1.046047 -0.4522607,1.894036 -1.0101526,1.894036 -0.5578918,0 -1.0101525,-0.847989 -1.0101525,-1.894036 0,-1.046047 0.4522607,-1.894036 1.0101525,-1.894036 0.5578919,0 1.0101526,0.847989 1.0101526,1.894036 z"
         sodipodi:ry="1.8940361"
         sodipodi:rx="1.0101526"
         sodipodi:cy="11.51968"
         sodipodi:cx="6.1871843"
         id="path5255"
         style="fill:#666666;fill-rule:evenodd;stroke:#666666;stroke-width:1px;stroke-linecap:butt;stroke-linejoin:miter;stroke-opacity:1"
         sodipodi:type="arc" />
      <path
         sodipodi:type="arc"
         style="fill:#666666;fill-rule:evenodd;stroke:#666666;stroke-width:1px;stroke-linecap:butt;stroke-linejoin:miter;stroke-opacity:1"
         id="path5257"
         sodipodi:cx="6.1871843"
         sodipodi:cy="11.51968"
         sodipodi:rx="1.0101526"
         sodipodi:ry="1.8940361"
         d="m 7.1973369,11.51968 c 0,1.046047 -0.4522607,1.894036 -1.0101526,1.894036 -0.5578918,0 -1.0101525,-0.847989 -1.0101525,-1.894036 0,-1.046047 0.4522607,-1.894036 1.0101525,-1.894036 0.5578919,0 1.0101526,0.847989 1.0101526,1.894036 z"
         transform="translate(-0.12626907,1006.2448)" />
    </g>
    <g
       transform="matrix(1,0,0,1.3567958,80.969392,-355.98515)"
       id="g5259">
      <path
         style="fill:none;stroke:#666666;stroke-width:1px;stroke-linecap:butt;stroke-linejoin:miter;stroke-opacity:1"
         d="m 6.0609153,1017.7645 c 0,-23.99116 0,-24.24369 0,-24.24369"
         id="path5261"
         inkscape:connector-curvature="0" />
      <path
         sodipodi:type="arc"
         style="fill:#666666;fill-rule:evenodd;stroke:#666666;stroke-width:1px;stroke-linecap:butt;stroke-linejoin:miter;stroke-opacity:1"
         id="path5263"
         sodipodi:cx="6.1871843"
         sodipodi:cy="11.51968"
         sodipodi:rx="1.0101526"
         sodipodi:ry="1.8940361"
         d="m 7.1973369,11.51968 c 0,1.046047 -0.4522607,1.894036 -1.0101526,1.894036 -0.5578918,0 -1.0101525,-0.847989 -1.0101525,-1.894036 0,-1.046047 0.4522607,-1.894036 1.0101525,-1.894036 0.5578919,0 1.0101526,0.847989 1.0101526,1.894036 z"
         transform="translate(-0.12626907,981.49605)" />
      <path
         transform="translate(-0.12626907,1006.2448)"
         d="m 7.1973369,11.51968 c 0,1.046047 -0.4522607,1.894036 -1.0101526,1.894036 -0.5578918,0 -1.0101525,-0.847989 -1.0101525,-1.894036 0,-1.046047 0.4522607,-1.894036 1.0101525,-1.894036 0.5578919,0 1.0101526,0.847989 1.0101526,1.894036 z"
         sodipodi:ry="1.8940361"
         sodipodi:rx="1.0101526"
         sodipodi:cy="11.51968"
         sodipodi:cx="6.1871843"
         id="path5265"
         style="fill:#666666;fill-rule:evenodd;stroke:#666666;stroke-width:1px;stroke-linecap:butt;stroke-linejoin:miter;stroke-opacity:1"
         sodipodi:type="arc" />
    </g>
    <g
       id="g5267"
       transform="matrix(1,0,0,1.3567958,94.464285,-355.98515)">
      <path
         inkscape:connector-curvature="0"
         id="path5269"
         d="m 6.0609153,1017.7645 c 0,-23.99116 0,-24.24369 0,-24.24369"
         style="fill:none;stroke:#666666;stroke-width:1px;stroke-linecap:butt;stroke-linejoin:miter;stroke-opacity:1" />
      <path
         transform="translate(-0.12626907,981.49605)"
         d="m 7.1973369,11.51968 c 0,1.046047 -0.4522607,1.894036 -1.0101526,1.894036 -0.5578918,0 -1.0101525,-0.847989 -1.0101525,-1.894036 0,-1.046047 0.4522607,-1.894036 1.0101525,-1.894036 0.5578919,0 1.0101526,0.847989 1.0101526,1.894036 z"
         sodipodi:ry="1.8940361"
         sodipodi:rx="1.0101526"
         sodipodi:cy="11.51968"
         sodipodi:cx="6.1871843"
         id="path5271"
         style="fill:#666666;fill-rule:evenodd;stroke:#666666;stroke-width:1px;stroke-linecap:butt;stroke-linejoin:miter;stroke-opacity:1"
         sodipodi:type="arc" />
      <path
         sodipodi:type="arc"
         style="fill:#666666;fill-rule:evenodd;stroke:#666666;stroke-width:1px;stroke-linecap:butt;stroke-linejoin:miter;stroke-opacity:1"
         id="path5273"
         sodipodi:cx="6.1871843"
         sodipodi:cy="11.51968"
         sodipodi:rx="1.0101526"
         sodipodi:ry="1.8940361"
         d="m 7.1973369,11.51968 c 0,1.046047 -0.4522607,1.894036 -1.0101526,1.894036 -0.5578918,0 -1.0101525,-0.847989 -1.0101525,-1.894036 0,-1.046047 0.4522607,-1.894036 1.0101525,-1.894036 0.5578919,0 1.0101526,0.847989 1.0101526,1.894036 z"
         transform="translate(-0.12626907,1006.2448)" />
    </g>
    <rect
       style="fill:#80b3ff;fill-opacity:0.41960784000000001;fill-rule:evenodd;stroke:#80b3ff;stroke-width:0.88582677;stroke-linecap:butt;stroke-linejoin:miter;stroke-opacity:1;stroke-miterlimit:4;stroke-dasharray:none"
       id="rect5275"
       width="104.28572"
       height="30.653708"
       x="0.89285713"
       y="1009.7194"
       ry="4.3508487"
       rx="3.75" />
    <rect
       rx="3.75"
       ry="3.0568697"
       y="984.00513"
       x="0.89285713"
       height="21.537037"
       width="104.28572"
       id="rect5785"
       style="fill:#80b3ff;fill-opacity:0.41960784000000001;fill-rule:evenodd;stroke:#80b3ff;stroke-width:0.88582677;stroke-linecap:butt;stroke-linejoin:miter;stroke-opacity:1;stroke-miterlimit:4;stroke-dasharray:none" />
  </g>
</svg>
